<?xml version="1.0" encoding="utf-8"?>
<svg viewBox="0 0 128 128" xmlns="http://www.w3.org/2000/svg"  style="background-color: #8039d7">
  <defs/>
  <path d="M 64 100.853 C 92.369 100.853 110.1 70.142 95.915 45.574 C 89.333 34.171 77.166 27.147 64 27.147 C 35.631 27.147 17.9 57.858 32.084 82.427 C 38.668 93.828 50.833 100.853 64 100.853 Z M 45.818 74.249 L 49.935 72.192 C 51.187 74.71 55.881 80.138 64 80.138 C 72.119 80.138 76.797 74.71 78.065 72.192 L 82.181 74.249 C 80.367 77.863 74.308 84.73 64 84.73 C 53.693 84.73 47.632 77.863 45.818 74.249 Z M 47.934 57.09 C 47.934 53.544 51.774 51.328 54.844 53.101 C 56.27 53.923 57.147 55.444 57.147 57.09 C 57.147 60.636 53.309 62.853 50.237 61.079 C 48.813 60.257 47.934 58.735 47.934 57.09 Z M 69.297 61.351 L 65.612 58.587 C 70.565 51.979 80.469 51.979 85.42 58.587 L 81.735 61.351 C 78.626 57.206 72.407 57.206 69.297 61.351 Z" style="fill: rgb(255, 255, 255)"/>
</svg>