<?xml version="1.0" encoding="UTF-8"?>
<svg id="Layer_1" xmlns="http://www.w3.org/2000/svg" version="1.1" viewBox="0 0 614 161">
  <!-- Generator: Adobe Illustrator 30.0.0, SVG Export Plug-In . SVG Version: 2.1.1 Build 123)  -->
  <defs>
    <style>
      .st0 {
        fill: #fff;
      }
    </style>
  </defs>
  <path class="st0" d="M614,0v161H0V0h614ZM168.01,137c1.81-.38,1.86-1.97,2.03-3.46,3.61-32.84,3.61-78.24,0-111.07-.16-1.5-.21-3.09-2.03-3.46-2.03,25.12-3.46,50.29-3.05,75.54l3.05,42.46ZM102,45h-15c1.35,14.4,8.86,31.39,3.77,45.27-1.75,4.78-4.32,10.27-10.29,9.81-2.16.3-1.95-3.15-2.3-4.75-3.53-16.07-4.27-34.02-7.18-50.33h-15l11.62,67.06c12.52,1.97,25.02-5.1,26.39-18.07,1.38-1.8,1.77.18,1.97,1.52.81,5.44,1.36,11.02,2.04,16.48,22.14,3.41,31.81-10.8,36.32-30.17,2.09-9,5.87-31.67-3.62-37.02-6.6-3.73-11.32.55-13.69,6.71,9.72.99,9.51,13.43,8.97,20.97-.4,5.61-5.85,31.09-14.39,28.47l-9.6-55.96ZM39,72.99c6.7-4.72,13.32-10.03,9.68-19.18-5.61-14.13-34.75-9.66-46.75-8.38l-.5,64.63c1.8,2.49,25.78,2.31,29.96,1.82,24.69-2.87,34.78-31.51,7.61-38.9ZM202,45v48c11.58,1.11,32.22,3.53,37.48-10.01,3.65-9.38-1.08-14.85-9.48-18.49,5.41-2.79,8.69-7.79,5.76-13.76-4.77-9.72-24.9-6.39-33.76-5.73ZM376.17,92.82c22.85,6.82,29.74-23.36,27.83-40.32-1.21-10.75-12.85-11.94-14.01-1.5,1.15.12,2.9-.4,3.83.17,4.76,2.89,2.18,32.86-7.3,33.84-1.52-.3-1.9-5.25-2.22-6.81-2.15-10.72-2.87-22.33-4.3-33.2h-12c1.22,12.53,11.57,34.28-4.99,40.01l-6.11-39.89-10.9-.1,7.49,47c4.93,4.97,14.08.26,17.51-4.5,1.72-2.4,1.27-5.98,3.99-5.5l1.17,10.82ZM313,63v23.5c0,.26,2.17,4.03,2.55,4.45,4.7,5.09,20.67,5.03,18.44-4.95-2.22,3.39-10.99,1.22-10.99-1.5v-21.5h10.01s0-7.01,0-7.01h-10.01s.01-7,.01-7h-9.43s-.57,7.01-.57,7.01h-5.01s0,7,0,7h5.01ZM476,63v22.5c0,9.29,22.38,13.32,21.99.5-2.97,3.5-11.99,1.77-11.99-2.5v-20.5h10.01s0-7.01,0-7.01h-10.01s.01-7,.01-7h-9.43s-.57,7.01-.57,7.01h-4.02s0,7,0,7h4.01ZM254,75l22.57-2.93c3.63-20.07-25.54-22.83-31.33-5.34-5.11,15.43,5.25,28.42,21.31,27.31,5.94-.41,9.82-2.36,9.45-9.04-8.88,5.45-22.74,1.99-21.99-10ZM304,56.01c-8.12-2.19-24.48.48-23.94,11.41s15.6,10.53,15.01,17.05c-.51,5.68-11.61,3.04-15.06,1.53-1.3,11.91,20.44,9.74,24.07,1.58,6.24-14.03-9.02-13.81-14.11-22.08-.03-5.06,9.75-3.66,13.02-2.5l1-6.99ZM440.88,71.88c1.96-19.77-26.29-22.36-32.19-5.69s6.49,30.69,23.76,27.75c4.46-.76,7.46-4.38,6.55-8.94-5.28,4.06-14.29,3.33-18.85-1.65-2.17-2.37-5.28-7.38-.61-8.32,3.21-.65,20.4-1.66,21.35-3.15ZM467.01,56c-9.04-1.64-23.46-.6-23.09,11.51.33,10.98,15.15,11.17,15.12,15.99-2.68,7.4-10.37,4.16-16.03,2.51.52,12.13,20.27,9.9,24.55,1.05,6.88-14.24-13.69-15.41-14.17-21.57l.84-2.25c2.11-1.96,9.11-1.64,11.76-.23l1.02-7.01ZM528.99,85c-8.07,5.23-19.69,2.35-22-7.55l1.67-2.29,20.39-2.6c5.78-16.75-16.81-22.73-27.05-12.05-10.22,10.66-4.12,30.73,10.73,33.26,7.18,1.22,17.39.81,16.25-8.76ZM536,62.5v30.5h10v-22.5c0-2.57,9.92-7.37,13.01-5.49v-10c-6.71.06-9.9,4.18-13.51,8.99.47-9.08-10.96-11.64-13.5-3l4,1.51ZM562,56v37h10v-22.5c0-.42,5.23-5.3,6.26-5.75,12.63-5.51,2.57,21.88,9.21,27.27,4.03,3.27,11.96,1.82,11.53-4.01l-3.88-1.63c-1.35-6.41,1.86-22.94-1.22-27.78-5.08-7.99-17.21-.58-21.89,4.4v-7s-10.01,0-10.01,0ZM347,112c-9.36-.96-5.17,1.51-4.96,7.46.24,6.67-4.16,26,6.95,19.03.7-2.17-1.99-1.36-1.99-1.48v-25ZM392.9,116.91c.14-.1,1.48-2.97.14-3.44-4.67-1.69-12.1.5-13.64,5.51-1,3.25,1.77,4.69,1.45,6.37-.5,2.67-8.05,6.35-1.37,12.67,5.67,5.36,8.74,1.33,14,1.17,2.62-.08,6.41,1.65,9.51.8-8.48-5.74-1.96-5.56-1.94-11.49.01-4.28-4.33-9.13-8.05-4.99-.75,1.65,2.6,1.61,3.34,4.67.3,1.23.08,3.87-.85,4.81-2.71-2.73-11.38-9.19-10.37-13.29.88-3.94,6.73-2.03,7.77-2.79ZM415,114v26h6.01s0-11.01,0-11.01l2.97.02c.07,6.65,8.9,16.1,14.04,8.5-4.44-1.14-7.28-4.98-9.05-9.06-.27-1.95,4.05-2.19,4.86-6.19,2.1-10.34-12.11-9.42-18.82-8.26ZM253,114v26h6.01s-.01-12.01-.01-12.01h11.43s.57,12.01.57,12.01h6.01v-26.01h-6.01s.01,10.01.01,10.01h-11.43s-.57-10.01-.57-10.01h-6.01ZM312,115.99l-5.11.48c-.43,2.5-.58,2.88-2.94,4.07v1.94c6.12,2.24,1.24,10.93,3.53,15.54,1.66,3.34,10.47,4.24,10.51-1.01l-5.56-.94-.28-11.41c.23-2.9,5.85.19,5.83-2.15-.04-3.91-5.58-2.09-5.99-2.49v-4.02ZM524.01,115.99l-6,.02c1.4,3.44-1.95,4.23-2.02,4.5-.77,2.88,1.79,2.23,2,3.16.95,4.12-1.33,10.07,1.56,14.29,2.41,3.52,9.87,4.37,10.45-.95l-5.56-.94-.43-13.07,4.99,1v-3.99s-5,0-5,0v-4.02ZM291.65,119.35c-14.47.44-12.64,21.83-.13,21.69,12-.14,14.01-22.11.13-21.69ZM325,130l12.57-1.97c.68-10.12-13.45-11.33-17.06-3.03-6.01,13.81,13.17,20.21,16.49,12.48,1.16-2.7-4.11-.36-5.46-.41-4.14-.16-6.77-2.95-6.53-7.07ZM444,130l12.58-1.96c.45-5.27-3.52-8.81-8.73-8.49-15.58.98-9.34,25.07,4.18,21.04,1.82-.54,6.94-4.65,1.91-4.16-5.78.56-9.53.81-9.93-6.43ZM479.28,138.71c10.28,8.83,23.2-8.65,14.25-16.74-11.27-10.19-24.12,8.26-14.25,16.74ZM507.01,140.01c.68-4.83-2.1-12.09,2.67-14.93,2.1-1.25,7.45.06,2.83-6.05l-6.01,4.97-2.11-3.9-5.38,1.42c-.45,2.23,1.8.7,2.08,2.91.31,2.49-.65,15.03-.09,15.58h6.01ZM364.01,120c-3.88-.05-10.38-1.09-11.8,3.71-2.12,7.14,4.25,6.8,7.79,10.8.74,3.47-7.4,2.87-8.99,1.49,2.31,9.73,18.54,3.28,12.89-5.41-1.44-2.22-5.39-2.56-6.89-5.11-.75-3.58,6.67-2.16,7-2.49v-2.99ZM472.01,120c-5.99-1.44-15.27,1.33-11.51,9.01,1.01,2.05,18.14,9.85-1.49,6.99-.32,7.01,11.37,5.61,13.49.98,3.48-7.62-6.98-9.03-7.49-11.49-.18-3.88,6.48-1.96,7-2.49v-2.99ZM545,120.01c-14.77-1.74-17.89,7.39-5,14.5.69,3.25-6.13,2.97-7.99,1.49.83,9.48,16.98,4.14,12.5-5.01-1.25-2.55-15.95-7.28-1.19-7.96l1.68-3.03Z"/>
  <path d="M102,45l9.6,55.96c8.53,2.62,13.98-22.86,14.39-28.47.54-7.54.74-19.98-8.97-20.97,2.37-6.16,7.1-10.43,13.69-6.71,9.49,5.36,5.72,28.02,3.62,37.02-4.51,19.37-14.18,33.57-36.32,30.17-.67-5.46-1.22-11.04-2.04-16.48-.2-1.33-.58-3.31-1.97-1.52-1.37,12.97-13.87,20.04-26.39,18.07l-11.62-67.06h15c2.91,16.31,3.65,34.27,7.18,50.33.35,1.59.15,5.05,2.3,4.75,5.97.47,8.54-5.03,10.29-9.81,5.08-13.89-2.43-30.87-3.77-45.27h15Z"/>
  <path d="M39,72.99c27.17,7.39,17.08,36.03-7.61,38.9-4.18.49-28.16.66-29.96-1.82l.5-64.63c12-1.28,41.14-5.75,46.75,8.38,3.63,9.15-2.98,14.45-9.68,19.18ZM16,74c25.08-.91,28.36-26.49,0-22v22ZM16,104c26.35,5.83,33.93-29.66,3.45-26.05-1.45.17-2.57.12-3.45,1.55v24.5Z"/>
  <path d="M376.17,92.82l-1.17-10.82c-2.72-.47-2.27,3.11-3.99,5.5-3.43,4.76-12.58,9.47-17.51,4.5l-7.49-47,10.9.1,6.11,39.89c16.57-5.72,6.22-27.48,4.99-39.99h12c1.43,10.86,2.15,22.47,4.3,33.19.31,1.55.7,6.51,2.22,6.81,9.48-.97,12.06-30.95,7.3-33.84-.94-.57-2.68-.04-3.83-.17,1.16-10.44,12.79-9.25,14.01,1.5,1.91,16.96-4.98,47.14-27.83,40.32Z"/>
  <path d="M202,45c8.86-.66,29-3.99,33.76,5.73,2.93,5.97-.35,10.98-5.76,13.76,8.39,3.65,13.12,9.11,9.48,18.49-5.27,13.54-25.9,11.12-37.48,10.01v-48ZM212,65c17.37,1.19,20.96-17.5.94-14.57l-.94,14.57ZM212,70.5v15c6.08,4.35,17.03.19,17.06-8,.03-9.68-16.03-10.34-17.06-7Z"/>
  <path d="M562,56h10.01s0,7,0,7c4.68-4.99,16.81-12.39,21.89-4.4,3.08,4.84-.13,21.37,1.22,27.78l3.88,1.63c.43,5.84-7.5,7.29-11.53,4.01-6.63-5.39,3.42-32.78-9.21-27.27-1.03.45-6.26,5.32-6.26,5.75v22.5h-10v-37Z"/>
  <path d="M528.99,85c1.14,9.57-9.07,9.98-16.25,8.76-14.85-2.52-20.95-22.59-10.73-33.26,10.24-10.68,32.83-4.7,27.05,12.05l-20.39,2.6-1.67,2.29c2.31,9.9,13.93,12.78,22,7.55ZM521,67.99c-.55-11.33-14.78-8.46-14,2l14-2Z"/>
  <path d="M440.88,71.88c-.95,1.49-18.14,2.51-21.35,3.15-4.67.94-1.56,5.95.61,8.32,4.55,4.97,13.57,5.71,18.85,1.65.91,4.56-2.08,8.18-6.55,8.94-17.27,2.93-29.62-11.22-23.76-27.75s34.15-14.08,32.19,5.69ZM430.98,67.96c-.52-11.31-14.77-8.4-13.97,2.03l13.97-2.03Z"/>
  <path d="M254,75c-.75,11.99,13.11,15.45,21.99,10,.36,6.68-3.51,8.63-9.45,9.04-16.06,1.11-26.42-11.87-21.31-27.31,5.79-17.5,34.97-14.73,31.33,5.34l-22.57,2.93ZM265.75,62.26c-5.03-4.78-12.99,1.39-12.74,7.73l15-2c.37-.41-1.64-5.15-2.25-5.73Z"/>
  <path d="M313,63h-5.01s0-7.01,0-7.01h5.01s.57-7.01.57-7.01h9.43s-.01,7.02-.01,7.02h10.01s0,7,0,7h-10.01s0,21.49,0,21.49c0,2.72,8.77,4.89,10.99,1.5,2.24,9.98-13.74,10.04-18.44,4.95-.39-.42-2.55-4.19-2.55-4.45v-23.5Z"/>
  <path d="M168.01,137l-3.05-42.46c-.41-25.25,1.02-50.42,3.05-75.54,1.81.38,1.86,1.97,2.03,3.46,3.61,32.84,3.61,78.23,0,111.07-.16,1.5-.21,3.09-2.03,3.46Z"/>
  <path d="M476,63h-4.01s0-7.01,0-7.01h4.02s.57-7.01.57-7.01h9.43s-.01,7.02-.01,7.02h10.01s0,7,0,7h-10.01s0,20.49,0,20.49c0,4.27,9.02,6,11.99,2.5.39,12.82-21.99,8.79-21.99-.5v-22.5Z"/>
  <path d="M467.01,56l-1.02,7.01c-2.65-1.4-9.65-1.72-11.76.23l-.84,2.25c.48,6.16,21.05,7.33,14.17,21.57-4.28,8.85-24.03,11.08-24.55-1.05,5.66,1.65,13.35,4.9,16.03-2.51.04-4.82-14.79-5.01-15.12-15.99-.37-12.11,14.05-13.15,23.09-11.51Z"/>
  <path d="M304,56.01l-1,6.99c-3.27-1.16-13.05-2.56-13.02,2.5,5.08,8.27,20.35,8.05,14.11,22.08-3.63,8.16-25.37,10.33-24.07-1.58,3.46,1.5,14.55,4.14,15.06-1.53.59-6.52-14.49-6.48-15.01-17.05s15.82-13.61,23.94-11.41Z"/>
  <path d="M536,62.5l-4-1.51c2.54-8.63,13.96-6.07,13.5,3,3.61-4.81,6.8-8.93,13.5-8.99v10c-3.07-1.88-12.99,2.92-12.99,5.49v22.5h-10v-30.5Z"/>
  <polygon points="253 114 259.01 113.99 259.58 124.02 271.01 124.01 270.99 113.99 277 114 277 140 270.99 140.01 270.42 127.98 258.99 127.99 259.01 140.01 253 140 253 114"/>
  <path d="M415,114c6.72-1.16,20.92-2.08,18.82,8.26-.81,4-5.13,4.24-4.86,6.19,1.77,4.09,4.61,7.92,9.05,9.06-5.14,7.6-13.97-1.85-14.04-8.5l-2.97-.02v11.01s-6,0-6,0v-26ZM421.01,126c8.9-.17,9.91-10.05,0-9v9Z"/>
  <path d="M392.9,116.91c-1.04.76-6.88-1.15-7.77,2.79-1.01,4.1,7.66,10.56,10.37,13.29.93-.94,1.14-3.58.85-4.81-.74-3.05-4.09-3.02-3.34-4.67,3.71-4.14,8.06.71,8.05,4.99-.02,5.93-6.54,5.75,1.94,11.49-3.11.85-6.89-.88-9.51-.8-5.26.16-8.34,4.19-14-1.17-6.68-6.32.87-10,1.37-12.67.31-1.68-2.45-3.12-1.45-6.37,1.54-5.01,8.97-7.2,13.64-5.51,1.34.48,0,3.34-.14,3.44ZM390.99,135.02c-3.3-.42-4.77-3.68-6.75-5.78-.5-.53-.76-2.92-1.76-.26-2.13,5.69,2.71,8.97,8.01,8.02l.49-1.98Z"/>
  <path d="M479.28,138.71c-9.87-8.48,2.98-26.93,14.25-16.74,8.95,8.09-3.97,25.57-14.25,16.74ZM484.71,123.14c-4.42,1.23-3.99,14.46,1.74,13.91,5.95-.57,5.53-15.93-1.74-13.91Z"/>
  <path d="M291.65,119.35c13.88-.42,11.86,21.54-.13,21.69-12.51.15-14.34-21.25.13-21.69ZM293.84,123.17c-7.42-4.52-8.89,12.1-4.21,13.71,8.12,2.8,7.04-11.99,4.21-13.71Z"/>
  <path d="M325,130c-.23,4.12,2.39,6.92,6.53,7.07,1.35.05,6.62-2.29,5.46.41-3.31,7.73-22.5,1.33-16.49-12.48,3.61-8.3,17.74-7.09,17.06,3.03l-12.57,1.97ZM325.01,128l7.97-2.5c-3.36-5.25-8.55-3.75-7.97,2.5Z"/>
  <path d="M444,130c.41,7.24,4.16,6.99,9.93,6.43,5.03-.49-.09,3.62-1.91,4.16-13.52,4.03-19.76-20.05-4.18-21.04,5.2-.33,9.18,3.21,8.73,8.49l-12.58,1.96ZM444.01,128l7.97-2.5c-3.36-5.25-8.55-3.75-7.97,2.5Z"/>
  <path d="M524.01,115.99v4.02s5,0,5,0v3.99s-5-1-5-1l.43,13.07,5.56.94c-.58,5.33-8.04,4.47-10.45.95-2.89-4.21-.61-10.17-1.56-14.29-.21-.93-2.77-.28-2-3.16.07-.27,3.42-1.07,2.02-4.5l6-.02Z"/>
  <path d="M312,115.99v4.02c.4.4,5.94-1.41,5.98,2.49.02,2.34-5.59-.75-5.83,2.15l.28,11.41,5.56.94c-.04,5.25-8.85,4.35-10.51,1.01-2.29-4.61,2.59-13.3-3.52-15.54v-1.94c2.35-1.19,2.5-1.57,2.93-4.07l5.11-.48Z"/>
  <path d="M472.01,120v2.99c-.52.53-7.19-1.39-7,2.49.51,2.46,10.97,3.87,7.49,11.49-2.11,4.63-13.8,6.03-13.49-.98,19.63,2.86,2.5-4.94,1.49-6.99-3.76-7.67,5.52-10.44,11.51-9.01Z"/>
  <path d="M364.01,120v2.99c-.33.33-7.75-1.09-7,2.49,1.5,2.55,5.45,2.89,6.89,5.11,5.66,8.69-10.58,15.14-12.89,5.41,1.58,1.39,9.72,1.99,8.99-1.49-3.55-4-9.91-3.66-7.79-10.8,1.42-4.8,7.92-3.76,11.8-3.71Z"/>
  <path d="M545,120.01l-1.68,3.03c-14.77.68-.06,5.41,1.19,7.96,4.48,9.15-11.67,14.49-12.5,5.01,1.85,1.49,8.68,1.76,7.99-1.49-12.89-7.11-9.77-16.25,5-14.5Z"/>
  <path d="M347,112v25c0,.12,2.69-.68,1.99,1.48-11.1,6.97-6.71-12.35-6.95-19.03-.22-5.95-4.4-8.42,4.96-7.46Z"/>
  <path d="M507.01,140.01h-6.01c-.55-.55.4-13.09.09-15.58-.27-2.21-2.53-.68-2.08-2.91l5.38-1.42,2.11,3.9,6.01-4.97c4.61,6.11-.73,4.8-2.83,6.05-4.77,2.84-1.99,10.11-2.67,14.93Z"/>
  <path class="st0" d="M16,104v-24.5c.88-1.43,1.99-1.38,3.45-1.55,30.48-3.61,22.9,31.88-3.45,26.05Z"/>
  <path class="st0" d="M16,74v-22c28.36-4.49,25.08,21.09,0,22Z"/>
  <path class="st0" d="M212,70.5c1.03-3.34,17.09-2.68,17.06,7-.03,8.19-10.98,12.35-17.06,8v-15Z"/>
  <path class="st0" d="M212,65l.94-14.57c20.02-2.93,16.43,15.76-.94,14.57Z"/>
  <path class="st0" d="M521,67.99l-14,2c-.78-10.46,13.44-13.33,14-2Z"/>
  <path class="st0" d="M430.98,67.96l-13.97,2.03c-.8-10.43,13.45-13.34,13.97-2.03Z"/>
  <path class="st0" d="M265.75,62.26c.61.58,2.62,5.32,2.25,5.73l-15,2c-.24-6.34,7.72-12.52,12.74-7.73Z"/>
  <path class="st0" d="M421.01,126v-9c9.91-1.05,8.9,8.83,0,9Z"/>
  <path class="st0" d="M390.99,135.02l-.49,1.98c-5.3.95-10.14-2.34-8.01-8.02,1-2.67,1.26-.27,1.76.26,1.98,2.1,3.44,5.35,6.75,5.78Z"/>
  <path class="st0" d="M484.71,123.14c7.27-2.02,7.69,13.33,1.74,13.91-5.73.55-6.16-12.68-1.74-13.91Z"/>
  <path class="st0" d="M293.84,123.17c2.83,1.72,3.91,16.51-4.21,13.71-4.68-1.61-3.2-18.23,4.21-13.71Z"/>
  <path class="st0" d="M325.01,128c-.58-6.25,4.61-7.74,7.97-2.5l-7.97,2.5Z"/>
  <path class="st0" d="M444.01,128c-.58-6.25,4.61-7.74,7.97-2.5l-7.97,2.5Z"/>
</svg>