<?xml version="1.0" encoding="UTF-8"?>
<svg id="Layer_1" xmlns="http://www.w3.org/2000/svg" version="1.1" viewBox="0 0 2560 1610">
  <!-- Generator: Adobe Illustrator 30.0.0, SVG Export Plug-In . SVG Version: 2.1.1 Build 123)  -->
  <defs>
    <style>
      .st0 {
        fill: #fff;
      }
    </style>
  </defs>
  <path class="st0" d="M2560,0v1610H0V0h2560ZM1877,833c-76.12,43.8-174.63,30.68-234.51-33.99-121.99-131.72-67.41-424.43,146.01-406.01,58.38,5.04,97.36,28.9,136.02,70.98,2.39,2.6,7.45,12.52,11.56,9.59l.44-87.59c-1.01-1.7-8.2-2.89-10.5-3.5-76.99-20.33-179.59-29.75-255.53-3.51-232.8,80.44-238.26,416.34-1.02,494.06,85.15,27.89,163.44,16.58,246.06-12.02,13.21-4.57,26.45-9.46,39.48-14.52v-210l-1.5-1.5h-75l-1.5,1.5v196.5ZM676,371h-76v509h76v-509ZM978,371h-76v510l76-1v-230.5l1.5-1.5h275.5v232h77v-509h-75.5l-1.5,1.5v222.5h-275.5l-1.5-1.5v-222.5ZM1997.76,377.26c-33.68,4.86-32.73,58.41,3.76,60.72,44.52,2.83,44.25-67.65-3.76-60.72ZM391.65,1220.65c17.26-17.89,22.89-47.04,13.21-70.01-28.18-66.84-165.01-61.39-177.61,13.11-14.33,84.75,115.63,107.45,164.4,56.9ZM1016,1143c-1.79-7.48-3.46-13.97-8.49-20.01-26.12-31.42-125.77-25.28-113.26,27.26,8.26,34.69,71.91,25.73,97.73,38.27,17.43,8.47,13.75,29.79-1.94,38.02-18.57,9.74-62.92,9.28-78.04-7.04-4.32-4.66-5.75-10.97-8.5-16.5h-17.5c1.92,14.89,12.18,28.31,25.32,35.18,33.54,17.54,118.6,13.19,109.45-41.45-5.1-30.47-55.95-29.53-78.97-34.03-15.14-2.96-36.69-7.93-30.03-28.44,6.09-18.74,48.92-17.63,64.01-13.55,12.75,3.45,19.13,10.12,23.72,22.28h16.5ZM1235.5,1245h20.5l-28.09-28.63,27.09-43.37h-14.5c-1.87,0-18.02,27.51-21.04,30.96l-2.48.58-31-32.02,19.52-12.52c48.41-62.83-78.39-81.7-59.26-8.72l11.77,17.71c-14.71,5.02-31.3,16.86-32.99,33.53-1.92,19.04,4.46,33.16,22.71,40.26,23.64,9.2,52.34,3.57,68.78-15.8l18.99,18.02ZM1698,1203h-18c1.18,14.51,10.9,27.21,23.33,34.17,31.83,17.81,115.52,15.48,111.65-35.65-2.05-26.98-30.92-31.83-52.67-35.35-15.95-2.58-67.38-3.44-57.09-31.45,6.67-18.18,42.3-17.84,58.01-15.43,13.31,2.04,26.66,9.36,28.78,23.72h17c-4.25-39.74-57.96-43.4-88.43-35.93-14.57,3.57-31.92,14.03-33.56,30.44-4.28,42.63,53.47,39.94,81.19,45.78,13.82,2.91,29.81,6.66,28.81,24.17-1.61,28.28-50.37,27.66-70.03,23.05-14.44-3.39-26.76-12.06-28.99-27.51ZM1928.79,1104.29c-48.21,2.84-94.64,34.82-81.13,88.54,19.11,75.99,176.43,72.9,181.38-13.3,3.16-55.05-53.55-78-100.24-75.24ZM2505,1143c.17-11.54-8.17-22.92-17.68-28.82-28.22-17.51-108.34-15.2-104.19,31.2,3.6,40.25,72.82,30.23,99.55,43.44,5.48,2.71,9.61,7.44,10.32,13.67,3.84,33.68-49.82,33.11-71.42,27.42-14.68-3.86-24.56-11.45-27.58-26.92h-18c2.35,21.08,18.91,34.63,38.22,40.28,28.55,8.35,89.36,5.99,96.33-31.23,9.98-53.3-69.02-41.24-98.25-54.86-15.45-7.2-15.75-25.81-1.01-33.4,15.7-8.08,58.04-8.29,70.7,5.71,3.51,3.88,4.72,9.21,7.51,13.49h15.5ZM62,1106h-19v139h19v-61h106v61h18v-139h-18v61.5l-106,.5v-62ZM559,1106h-131.5c-2.41,2.95-2.44,10.93,0,14h55l1.5,1.5v123.5h18v-125h57v-14ZM712,1106h-117v139h122v-14h-103v-50h83v-14h-83v-47h98v-14ZM773,1106h-18v139h106.5c2.41-2.95,2.44-10.93,0-14h-88.5v-125ZM1439.5,1106h-78.5v139h19v-56h43.5l50,56h21.5l-48.99-56.51c-.32-2.18.33-1.18,1.45-1.51,15.32-4.58,29.44-10.01,35.32-26.69,10.92-30.96-15.01-51.66-43.28-54.28ZM1649,1120c-.62-4.44,1.56-10.54-1.5-14h-116.5v139h122v-14h-103v-50h83v-14h-83v-47h99ZM2147.5,1106h-77v139h17.5v-54.5l1.5-1.5h43l49,56h22.5l-49.99-56.51c-.33-2.18.33-1.18,1.45-1.51,18.5-5.54,35.75-13.36,37.58-35.44,2.39-28.85-19.22-43.21-45.54-45.54ZM2355,1106h-133v14h57v125h19v-125h57v-14Z"/>
  <polygon points="978 371 978 593.5 979.5 595 1255 595 1255 372.5 1256.5 371 1332 371 1332 880 1255 880 1255 648 979.5 648 978 649.5 978 880 902 881 902 371 978 371"/>
  <path d="M1877,833v-196.5l1.5-1.5h75l1.5,1.5v210c-13.04,5.06-26.27,9.95-39.48,14.52-82.61,28.59-160.91,39.91-246.06,12.02-237.24-77.72-231.78-413.62,1.02-494.06,75.94-26.24,178.54-16.82,255.53,3.51,2.31.61,9.49,1.8,10.5,3.5l-.44,87.59c-4.11,2.93-9.17-6.98-11.56-9.59-38.66-42.08-77.64-65.94-136.02-70.98-213.41-18.42-267.99,274.29-146.01,406.01,59.88,64.66,158.4,77.79,234.51,33.99Z"/>
  <rect x="600" y="371" width="76" height="509"/>
  <path d="M1928.79,1104.29c46.69-2.75,103.4,20.2,100.24,75.24-4.94,86.2-162.27,89.29-181.38,13.3-13.51-53.72,32.93-85.7,81.13-88.54ZM1932.79,1118.3c-29.04,1.04-63.15,15.04-67.53,47.46-11.48,84.85,137.03,86.18,143.73,18.73,4.69-47.19-34.15-67.69-76.2-66.19Z"/>
  <path d="M391.65,1220.65c-48.77,50.56-178.73,27.85-164.4-56.9,12.6-74.5,149.43-79.95,177.61-13.11,9.68,22.97,4.05,52.12-13.21,70.01ZM376.65,1139.35c-30.16-32.08-114.16-28.81-128.36,18.43-24.57,81.74,113.1,99.46,137.9,38.9,7.71-18.83,4.52-42.38-9.53-57.33Z"/>
  <path d="M1439.5,1106c28.26,2.61,54.2,23.32,43.28,54.28-5.89,16.69-20,22.11-35.32,26.69-1.12.34-1.77-.67-1.45,1.51l48.99,56.51h-21.5l-50-56h-43.5v56h-19v-139h78.5ZM1380,1175h56.5c2.41,0,12.91-3.28,15.5-4.5,16.8-7.98,19.58-32.4,4.5-43.5-3.87-2.85-15.45-7-20-7h-56.5v55Z"/>
  <path d="M2147.5,1106c26.32,2.32,47.92,16.69,45.54,45.54-1.83,22.07-19.09,29.9-37.58,35.44-1.12.34-1.77-.66-1.45,1.51l49.99,56.51h-22.5l-49-56h-43l-1.5,1.5v54.5h-17.5v-139h77ZM2088,1120v53.5l1.5,1.5h56c1.33,0,9.89-2.53,11.77-3.23,21.12-7.83,24.28-37.21,3.71-47.25-2.97-1.45-12.58-4.52-15.48-4.52h-57.5Z"/>
  <path d="M1235.5,1245l-18.99-18.02c-16.44,19.37-45.14,25-68.78,15.8-18.26-7.11-24.64-21.22-22.71-40.26,1.68-16.66,18.28-28.51,32.99-33.53l-11.77-17.71c-19.12-72.98,107.68-54.11,59.26,8.72l-19.52,12.52,31,32.02,2.48-.58c3.01-3.45,19.17-30.96,21.04-30.96h14.5l-27.09,43.37,28.09,28.63h-20.5ZM1176.74,1117.24c-22.33,3.39-21.65,28.32-7.78,41.3,6.98,6.53,8.76,4.56,16.35.27,26.32-14.91,18.79-45.71-8.57-41.56ZM1199.35,1208.65c-10.12-10.58-19.92-21.5-30.83-31.31-16.03,5.49-29.33,15.48-27.51,34.15,2.8,28.79,50.04,25.24,65.5,8.53,4.22-4.56-4.2-8.28-7.16-11.37Z"/>
  <polygon points="62 1106 62 1168 168 1167.5 168 1106 186 1106 186 1245 168 1245 168 1184 62 1184 62 1245 43 1245 43 1106 62 1106"/>
  <path d="M1016,1143h-16.5c-4.59-12.16-10.97-18.83-23.72-22.28-15.09-4.09-57.93-5.19-64.01,13.55-6.66,20.51,14.89,25.48,30.03,28.44,23.02,4.5,73.87,3.56,78.97,34.03,9.15,54.64-75.9,58.99-109.45,41.45-13.13-6.87-23.39-20.29-25.32-35.18h17.5c2.76,5.53,4.18,11.83,8.5,16.5,15.12,16.33,59.47,16.78,78.04,7.04,15.69-8.23,19.36-29.55,1.94-38.02-25.82-12.54-89.47-3.58-97.73-38.27-12.51-52.54,87.14-58.68,113.26-27.26,5.02,6.04,6.69,12.53,8.49,20.01Z"/>
  <path d="M2505,1143h-15.5c-2.79-4.29-4-9.61-7.51-13.49-12.66-14-55-13.79-70.7-5.71-14.73,7.58-14.44,26.19,1.01,33.4,29.22,13.62,108.23,1.56,98.25,54.86-6.97,37.22-67.78,39.58-96.33,31.23-19.31-5.65-35.87-19.19-38.22-40.28h18c3.02,15.47,12.9,23.06,27.58,26.92,21.6,5.69,75.25,6.25,71.42-27.42-.71-6.23-4.84-10.97-10.32-13.67-26.73-13.21-95.95-3.2-99.55-43.44-4.15-46.4,75.98-48.71,104.19-31.2,9.51,5.9,17.84,17.29,17.68,28.82Z"/>
  <path d="M1698,1203c2.23,15.45,14.55,24.12,28.99,27.51,19.66,4.61,68.41,5.24,70.03-23.05,1-17.51-15-21.25-28.81-24.17-27.72-5.85-85.47-3.15-81.19-45.78,1.65-16.41,19-26.86,33.56-30.44,30.47-7.48,84.17-3.81,88.43,35.93h-17c-2.12-14.36-15.47-21.68-28.78-23.72-15.71-2.4-51.33-2.74-58.01,15.43-10.28,28.01,41.14,28.87,57.09,31.45,21.76,3.52,50.63,8.37,52.67,35.35,3.88,51.13-79.81,53.46-111.65,35.65-12.44-6.96-22.16-19.65-23.33-34.17h18Z"/>
  <path d="M1649,1120h-99v47h83v14h-83v50h103v14h-122v-139h116.5c3.06,3.46.88,9.56,1.5,14Z"/>
  <polygon points="712 1106 712 1120 614 1120 614 1167 697 1167 697 1181 614 1181 614 1231 717 1231 717 1245 595 1245 595 1106 712 1106"/>
  <polygon points="2355 1106 2355 1120 2298 1120 2298 1245 2279 1245 2279 1120 2222 1120 2222 1106 2355 1106"/>
  <path d="M559,1106v14h-57v125h-18v-123.5l-1.5-1.5h-55c-2.44-3.07-2.41-11.05,0-14h131.5Z"/>
  <path d="M773,1106v125h88.5c2.44,3.07,2.41,11.05,0,14h-106.5v-139h18Z"/>
  <path d="M1997.76,377.26c48.01-6.92,48.28,63.55,3.76,60.72-36.48-2.32-37.43-55.87-3.76-60.72ZM2020.65,426.65c11.8-10.32,10.56-32.5-2.96-40.84-22.1-13.64-45.98,8.52-36.48,32.48,5.85,14.76,27.72,18.63,39.45,8.37Z"/>
  <path class="st0" d="M1932.79,1118.3c42.05-1.5,80.89,19,76.2,66.19-6.7,67.45-155.21,66.12-143.73-18.73,4.39-32.42,38.49-46.42,67.53-47.46Z"/>
  <path class="st0" d="M376.65,1139.35c14.05,14.95,17.25,38.49,9.53,57.33-24.8,60.56-162.47,42.84-137.9-38.9,14.2-47.25,98.2-50.51,128.36-18.43Z"/>
  <path class="st0" d="M1380,1175v-55h56.5c4.55,0,16.13,4.16,20,7,15.08,11.09,12.3,35.51-4.5,43.5-2.58,1.23-13.09,4.5-15.5,4.5h-56.5Z"/>
  <path class="st0" d="M2088,1120h57.5c2.9,0,12.51,3.07,15.48,4.52,20.57,10.05,17.41,39.43-3.71,47.25-1.88.7-10.44,3.23-11.77,3.23h-56l-1.5-1.5v-53.5Z"/>
  <path class="st0" d="M1199.35,1208.65c2.96,3.09,11.39,6.81,7.16,11.37-15.46,16.71-62.7,20.26-65.5-8.53-1.81-18.67,11.48-28.66,27.51-34.15,10.91,9.81,20.7,20.73,30.83,31.31Z"/>
  <path class="st0" d="M1176.74,1117.24c27.36-4.15,34.89,26.65,8.57,41.56-7.59,4.3-9.36,6.26-16.35-.27-13.88-12.98-14.56-37.91,7.78-41.3Z"/>
  <path class="st0" d="M2020.65,426.65c-11.73,10.26-33.6,6.39-39.45-8.37-9.5-23.96,14.38-46.12,36.48-32.48,13.52,8.35,14.76,30.53,2.96,40.84ZM2009.5,392c-4.43-.96-11.69.7-16.5,0v30h7.01c.99-.98-2.73-18.48,4.24-9.74,4.12,5.17,3.7,11.73,12.75,9.74l-6.87-12.52c8.06-3.05,7.21-15.79-.62-17.48Z"/>
  <path d="M2009.5,392c7.83,1.69,8.68,14.42.62,17.48l6.87,12.52c-9.05,1.99-8.63-4.57-12.75-9.74-6.96-8.73-3.24,8.76-4.24,9.75h-7.01v-30.01c4.81.7,12.07-.96,16.5,0ZM2007.75,398.24c-1.58-1.56-5.62-1.23-7.75-1.25v9.01c4.19.87,12.33-3.24,7.75-7.76Z"/>
  <path class="st0" d="M2007.75,398.24c4.58,4.52-3.56,8.63-7.74,7.76v-9.01c2.12.02,6.17-.31,7.74,1.25Z"/>
</svg>