<?xml version="1.0" encoding="utf-8"?>
<svg id="Layer_1" xmlns="http://www.w3.org/2000/svg" version="1.1" viewBox="0 0 3840 1000">
  <defs>
    <style>
      .st0 {
        fill: #fff;
      }
    </style>
  </defs>
  <path class="st0" d="M 3840 6.326 L 3840 1023.52 L 0 1023.52 L 0 6.326 L 3840 6.326 Z M 3468 408.495 L 3468 337.86 L 3334 361.405 L 3334 408.026 L 3331 409.44 L 3277 409.44 L 3260 427.333 L 3331 427.333 C 3336.95 427.333 3332.03 435.478 3331.92 437.184 C 3329.12 478.6 3328.47 525.91 3331.92 567.24 C 3333.19 582.42 3336.82 610.53 3356.01 622.77 C 3358.13 624.12 3372.66 630.77 3375.01 630.77 L 3494.01 630.77 C 3488.34 627.5 3482.28 624.66 3478.26 620.77 C 3475.86 618.44 3468.01 607.82 3468.01 605.81 L 3468.01 428.272 L 3514.01 428.272 L 3528.01 408.495 L 3468.01 408.495 L 3468 408.495 Z M 3612 361.405 L 3612 409.44 L 3554 409.44 L 3540 427.333 L 3609 427.333 L 3612.1 430.581 C 3612 463.58 3611.84 496.57 3612.08 529.56 C 3612.25 553.45 3604.89 605.94 3638.05 624.62 C 3639.96 625.7 3651.73 630.77 3653 630.77 L 3772 630.77 C 3766.81 627.19 3760.18 623.79 3756.25 619.82 C 3754.17 617.72 3748 609.48 3748 607.69 L 3748 428.272 L 3791 428.272 L 3808 408.489 L 3749 408.489 C 3746.15 407.664 3746.24 406.611 3745.9 405.241 C 3741.93 389.295 3746.56 365.985 3747.98 349.614 C 3748.29 346.011 3747.83 342.383 3747.99 338.793 L 3612 361.399 L 3612 361.405 Z M 1314 664.68 L 1494 664.68 L 1410.44 572.7 L 1458.02 524.35 L 1592 662.8 L 1764 662.8 L 1463.97 347.279 L 1324 379.318 L 1433.55 497.66 L 1385 544.11 L 1184.82 339.681 L 1038.15 375.157 L 1157.65 497.76 L 1156.48 501.47 C 1112.25 542.61 1046.88 618.34 927.03 614.75 C 920.21 614.55 892.55 611.49 888.92 612.78 L 808.18 677.25 C 839.54 687.89 888.49 693.6 927.08 692.04 C 997.14 689.2 1049.08 649.97 1080.35 623.88 C 1117.51 592.87 1147.87 559.8 1178.03 527.18 L 1314 664.69 L 1314 664.68 Z M 301.68 368.154 C 283.91 367.19 269.06 368.021 254.26 372.86 L 255.91 376.99 L 514.95 641.03 C 529.88 637.39 546.83 631.72 548.94 623.16 L 301.67 368.154 L 301.68 368.154 Z M 622.02 585.56 C 666.97 555.75 675.44 515.22 659.02 480.07 C 632.59 423.471 537.27 377.586 414 368.947 L 622.02 585.56 Z M 167 392.505 C 74.65 423.858 26.45 472.88 34.02 526.69 C 34.45 529.73 37.57 541.54 40.2 543.56 C 50.58 551.52 105.65 558.51 125.03 559.18 C 229.21 562.79 296.51 515.73 250.94 471.63 L 167.01 392.498 L 167 392.505 Z M 3109.51 405.913 C 3073.38 408.083 2974.66 432.884 2950.97 446.153 C 2927.45 459.33 2923.73 483.32 2921.91 500.28 C 2920 518.07 2919.76 559.17 2931.45 574.98 C 2953.15 604.34 3045.91 637.45 3112.96 634.52 C 3166.37 632.19 3253.11 597.68 3274.34 574.89 C 3296.25 551.38 3290.18 495.94 3276.64 470.82 C 3265.04 449.299 3222.12 430.638 3184.62 418.085 C 3160.14 409.89 3141.33 403.992 3109.5 405.907 L 3109.51 405.913 Z M 2106 630.77 C 2092.76 622.09 2082.09 611.96 2080.03 601.09 C 2071.76 557.32 2085.97 507.95 2080.08 463.56 C 2071.81 401.207 1940.44 399.621 1840 413.684 C 1813.9 417.337 1797.8 419.773 1783.17 431.184 C 1766.12 444.485 1763.22 462.32 1756.01 477.25 C 1804.21 458.68 1854.03 439.252 1920.97 442.417 C 1960.22 444.269 1958.79 461.59 1927.34 469.89 C 1857.66 488.26 1767.72 489.04 1729.06 529.09 C 1679.32 580.62 1767.57 658.42 1895.33 624.35 L 1951.98 606.29 C 1953.43 615.61 1963.22 624.28 1976.99 630.78 L 2105.99 630.78 L 2106 630.77 Z M 2290 630.77 C 2286.95 627.29 2281.07 624.77 2277.26 621.23 C 2269.26 613.82 2266.69 605.47 2264.03 597.32 L 2264.34 464.69 C 2290.96 453.21 2329.43 455.44 2356.86 464.99 C 2362.97 459.35 2410.76 428.412 2410.11 425.025 C 2409.38 421.27 2378.61 412.872 2370.57 411.527 C 2328.92 404.594 2292.46 412.351 2262.04 425.443 L 2247.02 411.318 L 2118.02 411.318 C 2128.08 417.756 2132.86 425.462 2134.1 433.41 C 2141.86 483.2 2128.89 537.57 2133.93 587.95 C 2135.55 604.19 2140.48 620.11 2169.03 630.76 L 2290.03 630.76 L 2290 630.77 Z M 2596 630.77 C 2579.58 620.96 2573.06 609.66 2570.03 597.32 L 2570.34 464.69 C 2596.96 453.21 2635.43 455.44 2662.86 464.99 C 2668.97 459.35 2716.76 428.412 2716.11 425.025 C 2715.38 421.27 2684.61 412.872 2676.57 411.527 C 2634.92 404.594 2598.46 412.351 2568.04 425.443 L 2553.02 411.318 L 2424.02 411.318 C 2433.72 417.102 2438.85 423.173 2440.09 430.594 C 2448.52 481.08 2434.23 536.82 2439.92 587.96 C 2441.66 603.62 2447.73 620.46 2475.02 630.77 L 2596.02 630.77 L 2596 630.77 Z M 2906 631.71 C 2891.75 623.84 2880.08 612.52 2878.03 602.03 C 2869.67 559.28 2884.14 510.68 2878.09 467.32 C 2872.62 447.713 2884.47 426.312 2852.99 410.385 L 2735.99 410.385 C 2744.77 418.866 2749.18 427.689 2750.07 437.19 C 2754.77 487.24 2741.62 541.12 2748.01 591.68 C 2749.82 605.98 2755.64 621.61 2778.99 631.72 L 2905.99 631.72 L 2906 631.71 Z M 94.02 597.81 C 91.27 599.48 116.77 614.49 120.97 616.66 C 175.05 644.5 282.34 666.47 362.76 662.68 C 384.09 661.68 409.75 657.19 417.22 646.82 L 297.98 519.64 L 288.57 537.32 C 262.28 571.62 188.62 597.05 111.1 598.79 C 105.34 598.92 99.36 599.05 94.02 597.81 Z" style=""/>
  <path d="M 1314 848 L 1178.03 556.01 C 1147.87 625.27 1117.52 695.5 1080.35 761.34 C 1049.08 816.75 997.13 900.04 927.08 906.07 C 888.49 909.39 839.54 897.27 808.18 874.68 L 888.92 737.77 C 892.56 735.05 920.21 741.54 927.03 741.97 C 1046.88 749.58 1112.25 588.77 1156.48 501.41 L 1157.65 493.53 L 1038.15 233.19 L 1184.82 157.86 L 1385 591.95 L 1433.55 493.32 L 1324 242.02 L 1463.97 173.99 L 1764 843.99 L 1592 843.99 L 1458.02 549.99 L 1410.44 652.66 L 1494 847.98 L 1314 847.98 L 1314 848 Z"/>
  <path d="M 2106 776 L 1977 776 C 1963.23 762.19 1953.44 743.8 1951.99 724.01 L 1895.34 762.34 C 1767.58 834.7 1679.33 669.48 1729.07 560.07 C 1767.74 475.03 1857.67 473.38 1927.35 434.35 C 1958.8 416.73 1960.23 379.96 1920.98 376.02 C 1854.04 369.31 1804.22 410.57 1756.02 449.99 C 1763.23 418.29 1766.13 380.41 1783.18 352.17 C 1797.81 327.94 1813.9 322.76 1840.01 315 C 1940.44 285.15 2071.82 288.52 2080.09 420.91 C 2085.98 515.18 2071.77 620.01 2080.04 712.96 C 2082.09 736.04 2092.77 757.54 2106.01 775.99 L 2106 776 Z M 1917.53 496.51 C 1886.04 500.49 1854.15 537.54 1842.29 565.28 C 1828.49 597.54 1815.79 686.69 1863.48 695.53 C 1896.22 701.6 1935.83 680.65 1945.01 648 C 1952.04 623 1948.92 540.02 1943.88 513.12 C 1941.24 499.03 1930.6 494.86 1917.54 496.51 L 1917.53 496.51 Z"/>
  <path d="M 3109.51 298.51 C 3141.34 294.44 3160.15 306.97 3184.63 324.37 C 3222.13 351.02 3265.05 390.65 3276.65 436.35 C 3290.19 489.69 3296.26 607.43 3274.35 657.35 C 3253.12 705.73 3166.38 779.02 3112.97 783.97 C 3045.92 790.19 2953.16 719.89 2931.46 657.54 C 2919.77 623.96 2920.01 536.67 2921.92 498.92 C 2923.74 462.9 2927.46 411.96 2950.98 383.98 C 2974.67 355.79 3073.39 303.14 3109.52 298.52 L 3109.51 298.51 Z M 3107.52 368.46 C 3068.54 370.68 3056.93 430.65 3054.02 461.02 C 3048.42 519.42 3048.47 609.01 3063.41 665.59 C 3069.47 688.56 3090.67 720.06 3118 708.98 C 3155.12 693.92 3164.33 624.32 3166.1 589.09 C 3168.29 545.56 3166.47 440.3 3148.35 402.65 C 3142.17 389.8 3123.18 367.57 3107.52 368.46 Z"/>
  <path d="M 3612 204 L 3747.99 156 C 3747.83 163.63 3748.29 171.34 3747.98 178.98 C 3746.56 213.74 3741.92 263.25 3745.9 297.1 C 3746.24 300.01 3746.15 302.24 3749 304 L 3808 304 L 3791 346 L 3748 346 L 3748 727 C 3748 730.82 3754.16 748.29 3756.25 752.75 C 3760.18 761.18 3766.81 768.41 3772 776 L 3653 776 C 3651.73 776 3639.96 765.23 3638.05 762.95 C 3604.89 723.26 3612.25 611.82 3612.08 561.09 C 3611.84 491.03 3612 420.97 3612.1 350.91 L 3609 344.01 L 3540 344.01 L 3554 306.01 L 3612 306.01 L 3612 204.01 L 3612 204 Z"/>
  <path d="M 3468 304 L 3528 304 L 3514 346 L 3468 346 L 3468 723 C 3468 727.27 3475.84 749.81 3478.25 754.75 C 3482.27 763.01 3488.34 769.06 3494 776 L 3375 776 C 3372.65 776 3358.13 761.87 3356 759 C 3336.81 733.01 3333.18 673.32 3331.91 641.09 C 3328.46 553.34 3329.11 452.87 3331.91 364.92 C 3332.03 361.3 3336.94 344 3330.99 344 L 3259.99 344 L 3276.99 306 L 3330.99 306 L 3333.99 303 L 3333.99 204 L 3467.99 154 L 3467.99 304 L 3468 304 Z"/>
  <path d="M 2290 776 L 2169 776 C 2140.46 753.39 2135.53 719.57 2133.9 685.1 C 2128.86 578.1 2141.84 462.66 2134.07 356.93 C 2132.83 340.05 2128.06 323.68 2117.99 310.01 L 2246.99 310.01 L 2262.01 340.01 C 2292.43 312.21 2328.89 295.72 2370.54 310.46 C 2378.58 313.31 2409.36 331.14 2410.08 339.12 C 2410.73 346.31 2362.94 412.01 2356.83 423.98 C 2329.4 403.71 2290.93 398.98 2264.31 423.35 L 2264 704.99 C 2266.66 722.3 2269.23 740.01 2277.23 755.76 C 2281.04 763.27 2286.93 768.62 2289.97 776.02 L 2290 776 Z"/>
  <path d="M 2596 776 L 2475 776 C 2447.72 754.12 2441.65 718.35 2439.9 685.1 C 2434.21 576.51 2448.5 458.14 2440.07 350.93 C 2438.83 335.18 2433.7 322.29 2424 310 L 2553 310 L 2568.02 340 C 2598.44 312.2 2634.9 295.71 2676.55 310.45 C 2684.59 313.3 2715.37 331.13 2716.09 339.11 C 2716.74 346.3 2668.95 412 2662.84 423.97 C 2635.41 403.7 2596.94 398.97 2570.32 423.34 L 2570.01 704.98 C 2573.05 731.17 2579.56 755.17 2595.98 776.01 L 2596 776 Z"/>
  <path d="M 2906 778 L 2779 778 C 2755.65 756.54 2749.82 723.35 2748.02 692.98 C 2741.64 585.61 2754.78 471.2 2750.08 364.92 C 2749.19 344.75 2744.78 326.01 2736 308 L 2853 308 C 2884.48 341.83 2872.63 387.27 2878.1 428.9 C 2884.15 520.99 2869.68 624.18 2878.04 714.96 C 2880.09 737.23 2891.76 761.28 2906.01 777.99 L 2906 778 Z"/>
  <path d="M 167 270.04 L 250.93 438.07 C 296.5 531.72 229.2 631.65 125.02 623.98 C 105.64 622.55 50.58 607.71 40.19 590.81 C 37.56 586.52 34.44 561.44 34.01 554.99 C 26.45 440.72 74.65 336.62 166.99 270.05 L 167 270.04 Z"/>
  <path d="M 622.02 680 L 414 220.03 C 537.27 238.38 632.59 335.81 659.02 455.99 C 675.44 530.64 666.97 616.71 622.02 680.01 L 622.02 680 Z"/>
  <path d="M 94.02 706 C 99.36 708.65 105.34 708.37 111.1 708.09 C 188.61 704.39 262.27 650.38 288.57 577.57 L 297.98 540.02 L 417.22 810.09 C 409.75 832.11 384.09 841.63 362.76 843.77 C 282.35 851.81 175.05 805.17 120.97 746.04 C 116.76 741.44 91.27 709.57 94.02 706.01 L 94.02 706 Z"/>
  <path d="M 301.68 218.33 L 548.95 759.83 C 546.84 778.01 529.89 790.04 514.96 797.78 L 255.92 237.09 L 254.27 228.32 C 269.06 218.04 283.92 216.28 301.69 218.32 L 301.68 218.33 Z"/>
  <path class="st0" d="M 1917.53 496.51 C 1930.59 494.86 1941.23 499.03 1943.87 513.12 C 1948.91 540.02 1952.03 622.99 1945 648 C 1935.82 680.65 1896.2 701.59 1863.47 695.53 C 1815.79 686.69 1828.48 597.54 1842.28 565.28 C 1854.15 537.54 1886.03 500.49 1917.52 496.51 L 1917.53 496.51 Z"/>
  <path class="st0" d="M 3107.52 368.46 C 3123.18 367.57 3142.17 389.8 3148.35 402.65 C 3166.47 440.31 3168.29 545.56 3166.1 589.09 C 3164.32 624.32 3155.12 693.92 3118 708.98 C 3090.68 720.06 3069.48 688.56 3063.41 665.59 C 3048.48 609.01 3048.42 519.42 3054.02 461.02 C 3056.93 430.65 3068.54 370.68 3107.52 368.46 Z"/>
</svg>