<?xml version="1.0" encoding="UTF-8"?>
<svg id="Layer_1" xmlns="http://www.w3.org/2000/svg" version="1.1" viewBox="0 0 2560 774">
  <!-- Generator: Adobe Illustrator 30.0.0, SVG Export Plug-In . SVG Version: 2.1.1 Build 123)  -->
  <defs>
    <style>
      .st0 {
        fill: #fff;
      }
    </style>
  </defs>
  <path class="st0" d="M2560,0v774H0V0h2560ZM878.99,428c-1.15,7.01-4.58,13.49-6.13,20.36-2.44,10.81-5.02,32.78,2.61,41.66,1.28,1.49,3.88,3.95,5.87,3.76,6.46-.6,14.71-20.1,17.14-25.81,14.25-33.46,26.85-71.83,38.53-106.47,19.3-57.22,38.53-117.6,48.81-177.19,2.41-13.97,3.45-23,7.11-36.89,9.45-35.85-11.67-76.47-32.13-104.76-6.65-9.2-42.18-57.01-44.8-22.17-.37,4.99.98,8.71,1.02,12.95.68,67.79-.64,134.42-7.05,202.04-1.88,19.86-4.63,39.7-7.01,59.5l-9.16-16.32c-21.62-25.16-49.19-45.34-82.5-26.84-27.99,15.55-49.9,47.04-61.8,76.2-25.79,63.2-36.09,179.47,69.45,138.45,22.34-8.68,43.04-21.66,60.01-38.48ZM2103.73,91.23c-6.6,2.1-9.17,6.47-9.77,13.23l.81,431.27c1.68,3.87,4.63,6.81,8.5,8.5,145.21,1.16,291.08,1.52,436.28-.18,3.81-1.65,6.62-4,7.98-8.02V99.97c-1.46-3.85-3.94-6.64-7.8-8.2l-436-.54ZM1131.65,106.35c-12.45-11.85-29.91-7.87-39.47,5.32-8.41,11.6-6.43,24.57-8.29,37.71-1.45,10.26-6.9,21.3-2.75,31.48,2.63.42,5.33.27,7.93-.31,9.54-2.09,38.84-20.39,44.76-28.23,9.89-13.1,10.1-34.28-2.18-45.97ZM307.01,383.01c59.77,4.47,134.69-24.27,128.98-95.49-3.66-45.73-45.71-89.66-81.67-114.33-50.31-34.51-109.8-52.65-169.94-61.06-11.99-1.68-27.24-4.05-38.89-5.11-39.06-3.56-85.92,24.86-114.96,49.01-9.66,8.03-38.94,33.05-10.02,35.96,11.27,1.14,24.87-4.5,36.3-6.67,87.57-16.65,184.75,4.29,263.21,44.16,31.13,15.82,82.23,50.35,54.79,90.84-23.63,34.86-86.06,34.37-123.3,37.7-3.28.29-16.38,1.62-14.06,6.95l10.53,7.02c-11.05,1.4-33.04,3.13-29.5,19.03,1.89,8.48,10.63,25.67,14.65,34.34,35.3,76.25,86.46,146.04,146.84,204.14,0,1.88-31.67,9.97-35.75,11.23-11.32,3.5-34.56,9.26-43.15,15.85-2.62,2.01-9.8,9.47-8.96,12.72,4.09,6.21,13.05,2.94,19.37,3.68l98.96-17.01c16.51,10.69,60.42,45.22,79.85,40.8,5.21-1.18,5-4.54,3.17-8.75l-27.46-42.02c127.45-19.93,255.15-39.06,383.5-53,117.6-12.77,235.98-22.3,354.03-24.97,2.37-.05,4.55-1.04,6.92-1.08,43.83-3.36,90.88,4.42,134.03,2.03,9.04-.5,26.56-2.27,34.22-6.78,6.8-4,6.51-8.58,3.3-15.21,1.49.78,2.75,1.01,4.44,1.05,45.74,1.28,92.47.45,138.06-1.04,19.02-.62,81.59-1.49,95.25-11.74,7.46-5.6-.64-8.46-4.76-12.26,12.12-.39,24.37.5,36.49-.02,13.34-.57,40.9-1.01,48.36-13.64,7.64-12.93-9.8-16.54-19.37-17.34-19.72-1.64-41.12-1.21-61.03-1.97-318.25-12.21-638.06,12.11-950.65,72.27-75.3,14.49-150.23,31.21-224.36,50.65l-2.9-2.02c-42.68-68.33-91.02-134.38-123.7-208.3l-10.85-19.64ZM1405.98,288c21.61,40.69,27.41,88.4-19.11,113.38-6.37,3.42-14.7,4.48-18.73,11.27-10.46,17.66,20.97,15.82,30.34,15.34,41.5-2.11,99.28-20.98,108.24-67.76,10.65-55.62-68.37-70.34-69.79-119.72-.56-19.5,17.56-21.97,19.82-34.24,3.2-17.35-13.63-14.79-24.06-9.07-20.23,11.1-20.88,25.74-30.53,43.47-9.3,17.09-23.37,30.63-38.27,42.73-11.36,9.22-18.74,9.81-20.79,27.21-.65,5.5-2.07,20.2,6.29,19.39l56.59-42ZM1558.35,418.65c22.34,23.02,81.66-.75,103.12-17.68,16.41-12.94,16.62-18.22,38.79-23.21,19.36-4.36,13.4-28.07,10.25-41.77s-14.77-53.54-27.16-60.84c-8.39-4.95-16.21.39-18.87,8.83-5.37,17.08,11.76,47.08,12.54,66.57.33,8.32-6.78,8.78-12.49,13.48s-9.01,9.51-16.51,13.49c-34.69,18.39-24.15-13.62-18.28-33.28,7.89-26.46,21.62-58.8,35.1-82.9,5.28-9.45,17.82-24.46,20.96-33.04,6.57-17.95-9.46-11.84-19.23-13.35-7.62-1.18-7.02-4.77-17.11-.99-15.12,5.67-34.11,39.88-42.87,54.13-16.1,26.18-33.89,55.97-45.76,84.24-8.17,19.48-19.7,48.57-2.47,66.32ZM231.74,221.15c-7.36,1.46-23.18,28.37-27.54,35.55-29.8,49.11-58.47,103.09-84.72,154.28-35.14,68.54-70.19,140.06-90.19,214.81-6.67,24.92-11.74,58.58,2.91,81.52,3,4.69,20.76,23.35,25.31,26.69,2.21,1.63,7.99,3.58,8.96,5.04,2.45,3.68,3.46,15.51,7.34,21.66,4.45,7.04,14.06,10.73,17.14.75,2.28-7.39,1.05-15.79,1.43-23.11,2.49-47.6,20.17-101.09,32.91-147.55,26.85-97.89,55.99-198.82,94.25-292.75,7.99-19.6,22.88-42.74,20.36-64.42-.51-4.38-2.56-13.57-8.16-12.46ZM1208.01,298c18.6,28.09,27.31,69.06,3.5,97.01-11.38,13.36-24.97,15.01-35.52,24.48-20.03,17.98,12.96,19,24.5,18.5,39.46-1.72,88.42-16.13,105.68-55.32,9.46-21.49.77-44.36-8.99-64.35-14.71-30.12-35.12-49.38-53.59-75.41-4.94-6.96-9.9-22.35-21.55-18.36-7.09,2.43-14.97,23.49-19.23,30.76-23.86,40.64-87.32,118.01-125.49,144.51-3.83,2.66-18.54,13.92-21.82,7.19-1.1-2.25-.86-34.53-.54-39.55.71-11.1,5.91-41.64,13.99-49.01,5.03-4.59,6.09-2.35,9.53-10.47,6.56-15.5,13.22-40.89-2.15-52.81-5.07-3.93-24.48-10.92-30.8-11.22-26.51-1.25-33.36,43.24-36.36,62.71-5.46,35.48-8.45,84.7,5.37,118.3,7.1,17.28,12.4,24.27,32.25,19.32,45.7-11.4,114.87-92.25,146.73-128.27,5.05-5.71,10.45-11.77,14.5-18.01ZM1907.99,307c.22,24.85,8.8,50.18,16.99,73.52,6.68,19.03,14.9,40.67,22.84,59.16,10.64,24.79,19.84,32.97,47.67,31.31,32.65-1.96,52.41-13.68,28.92-45.9-11.54-15.83-26.96-25.43-38.63-41.37-23.89-32.61-37.96-69.91-58.61-103.39-8.11-13.14-18.55-10.34-29.65-2.31-12.5,9.06-22.75,24.1-30.94,37.06-3.9,6.17-22.74,42.1-25.58,43.43-3.39,1.59-4.22-1.38-4.75-4.25-1.55-8.39,3.29-35.64,12.73-38.63,1.14-.36,2.51.57,3.96-.1,7.48-3.42,15.28-31.04,15.09-38.97-.17-7.14-3.65-16.18-9.01-21.08-4.26-3.89-23.47-12.67-28.98-13.02-20.3-1.27-30.38,26.06-35.31,41.77-11.64,37.06-21.83,92.82-13.28,130.82,4.82,21.43,16.65,31.09,37.47,19.37,35.54-20,46.49-64.98,66.67-97.33,6.6-10.59,14.11-20.79,22.41-30.08ZM644.23,292.78c-.43-.31-3.99-7.38-5.4-9.1-10.59-12.95-18.91-5.03-25.34,6.31-5.51,9.71-8.29,20.59-11.98,31.03-4.17-15.53-15-25.62-31.01-28-29.22-4.33-41.43,11.36-58.46,31.51-33.87,40.07-76.21,104.93-66.73,159.68,10.24,59.16,75.44,41.8,109.18,14.76,8.27-6.63,16.58-15.46,22.55-23.96l1.98.5c1.14,23.53,11.9,39.08,37.24,34.24,12.15-2.32,40.33-13.09,43.92-26.09,2.05-7.42.49-12.83,5.78-20.22,2.87-4.01,18.04-13.31,23.57-19.43s18.5-24.78.94-20.06c-16.38,4.41-34.76,19.06-49.42,27.62-5.56,2.28-7.12-4.81-7.11-9.08.08-35.77,22.49-79.67,28.78-115.29,9.09-13,11.51-24.02-5.44-30.96-2.75-1.12-12.28-2.92-13.03-3.46ZM1725.26,517.75c5.73,6.02,34.77,3.33,45.3,7.19,10.64,3.9,5.48,12.23,13.74,17.26,6.69,4.09,20.29,5.45,28.16,5.84,19.06.94,66.45-4.1,77.37-21.71,10.05-16.19-12.47-20.51-23.47-22.19-33.67-5.14-75.59-6.76-109.85-7.15-1.68-.02-3.44-1.05-5.06-1.03-5.59.05-15.39,1.67-19.94,5.05-3.86,2.86-10.31,12.47-6.25,16.74Z"/>
  <path d="M2103.73,91.23l436,.54c3.86,1.56,6.33,4.35,7.8,8.2v436.06c-1.36,4.02-4.17,6.37-7.98,8.02-145.2,1.71-291.07,1.34-436.28.18-3.87-1.69-6.82-4.63-8.5-8.5l-.81-431.27c.6-6.76,3.17-11.13,9.77-13.23ZM2222.5,279h-92.5v106c19.83.05,39.7-.05,59.54-.04,14.23,0,34.48,2.71,47.81-3.11,15.93-6.96,18.69-31.17,11.46-45.16-2.57-4.98-6.37-5.2-8.82-9.18,9.19-5.11,9.06-19.27,7.56-28.56-2.08-12.91-12.96-18.73-25.05-19.95ZM2294,279h-19v106.01s97,.99,97,.99v-18h-78v-89ZM2408,279h-19c-.2,20.5.24,41.03.04,61.54-.02,2.36-1.05,4.55-1.08,6.92-.24,16.42.97,33.01,19.82,37.26,14.4,3.25,28.5,1.38,42.68,1.24,14.45-.14,39.9,2.81,51.48-5.52,4.76-3.42,10.06-12.11,10.06-17.94v-83.5h-20v81.5c0,5.16-8.25,8.05-12.49,8.51-13.96,1.5-42.76,1.15-57.04.03-6.23-.49-12.63-1.15-13.49-8.51-2.04-17.6.67-40.61.06-59.06-.23-7.16-1.95-14.96-1.04-22.46Z"/>
  <path d="M307.01,383.01l10.85,19.64c32.68,73.92,81.02,139.97,123.7,208.3l2.9,2.02c74.13-19.43,149.06-36.15,224.36-50.65,312.59-60.16,632.39-84.48,950.65-72.27,19.91.76,41.31.34,61.03,1.97,9.56.79,27.01,4.41,19.37,17.34-7.46,12.63-35.02,13.07-48.36,13.64-12.12.52-24.37-.37-36.49.02,4.12,3.8,12.22,6.66,4.76,12.26-13.66,10.26-76.23,11.12-95.25,11.74-45.59,1.49-92.33,2.32-138.06,1.04-1.69-.05-2.95-.27-4.44-1.05,3.21,6.62,3.5,11.2-3.3,15.21-7.66,4.51-25.18,6.28-34.22,6.78-43.15,2.38-90.21-5.39-134.03-2.03-2.36.05-4.55,1.03-6.92,1.08-118.05,2.67-236.43,12.2-354.03,24.97-128.35,13.94-256.05,33.06-383.5,53l27.46,42.02c1.83,4.21,2.04,7.57-3.17,8.75-19.42,4.41-63.34-30.11-79.85-40.8l-98.96,17.01c-6.32-.74-15.28,2.53-19.37-3.68-.83-3.24,6.35-10.71,8.96-12.72,8.58-6.59,31.83-12.35,43.15-15.85,4.07-1.26,35.75-9.35,35.75-11.23-60.37-58.11-111.54-127.89-146.84-204.14-4.02-8.67-12.76-25.86-14.65-34.34-3.54-15.9,18.45-17.63,29.5-19.03l-10.53-7.02c-2.32-5.33,10.77-6.66,14.06-6.95,37.24-3.33,99.67-2.84,123.3-37.7,27.44-40.48-23.66-75.01-54.79-90.84-78.45-39.87-175.64-60.81-263.21-44.16-11.43,2.17-25.03,7.81-36.3,6.67-28.92-2.91.36-27.93,10.02-35.96,29.04-24.15,75.9-52.57,114.96-49.01,11.65,1.06,26.9,3.44,38.89,5.11,60.14,8.41,119.64,26.54,169.94,61.06,35.96,24.67,78,68.61,81.67,114.33,5.71,71.22-69.21,99.96-128.98,95.49Z"/>
  <path d="M878.99,428c-16.97,16.83-37.67,29.8-60.01,38.48-105.55,41.01-95.25-75.25-69.45-138.45,11.9-29.16,33.8-60.65,61.8-76.2,33.31-18.5,60.88,1.68,82.5,26.84l9.16,16.32c2.38-19.8,5.12-39.63,7.01-59.5,6.4-67.62,7.72-134.25,7.05-202.04-.04-4.24-1.39-7.96-1.02-12.95,2.61-34.84,38.15,12.97,44.8,22.17,20.46,28.29,41.58,68.91,32.13,104.76-3.66,13.89-4.7,22.93-7.11,36.89-10.29,59.59-29.51,119.96-48.81,177.19-11.68,34.64-24.29,73.01-38.53,106.47-2.43,5.71-10.68,25.2-17.14,25.81-1.99.19-4.59-2.27-5.87-3.76-7.62-8.89-5.04-30.85-2.61-41.66,1.55-6.87,4.98-13.36,6.13-20.36ZM845.34,315.33c.63-.81,2.59-1.11,3.19-2.31,1.63-3.26-2.52-18.93-7-19-8.01-.13-22.81,20.46-26.94,27.07-16.5,26.32-47.23,113.53,10.81,106.81,18.59-2.15,59.69-36.73,65.12-53.88,2.27-7.15,2.05-16.65,4.48-24.01-19.53,9.3-36.57,2.78-47.41-15.09-4.09-6.74-7.67-12.57-2.24-19.58Z"/>
  <path d="M231.74,221.15c5.59-1.11,7.65,8.08,8.16,12.46,2.52,21.69-12.38,44.82-20.36,64.42-38.26,93.93-67.4,194.86-94.25,292.75-12.74,46.46-30.42,99.95-32.91,147.55-.38,7.33.85,15.73-1.43,23.11-3.08,9.98-12.68,6.29-17.14-.75-3.89-6.14-4.89-17.98-7.34-21.66-.97-1.46-6.75-3.41-8.96-5.04-4.54-3.34-22.31-22-25.31-26.69-14.65-22.94-9.58-56.61-2.91-81.52,20-74.75,55.05-146.26,90.19-214.81,26.25-51.19,54.92-105.17,84.72-154.28,4.36-7.18,20.18-34.09,27.54-35.55Z"/>
  <path d="M644.23,292.78c.75.54,10.29,2.34,13.03,3.46,16.95,6.94,14.53,17.96,5.44,30.96-6.29,35.62-28.7,79.52-28.78,115.29,0,4.27,1.55,11.36,7.11,9.08,14.66-8.56,33.04-23.21,49.42-27.62,17.56-4.72,4.37,14.19-.94,20.06s-20.7,15.42-23.57,19.43c-5.3,7.38-3.74,12.8-5.78,20.22-3.58,13-31.77,23.77-43.92,26.09-25.35,4.84-36.1-10.72-37.24-34.24l-1.98-.5c-5.97,8.5-14.27,17.33-22.55,23.96-33.74,27.03-98.93,44.4-109.18-14.76-9.48-54.75,32.87-119.61,66.73-159.68,17.03-20.15,29.24-35.85,58.46-31.51,16.01,2.38,26.84,12.47,31.01,28,3.69-10.43,6.48-21.31,11.98-31.03,6.43-11.34,14.75-19.26,25.34-6.31,1.41,1.72,4.97,8.79,5.4,9.1ZM578.74,322.15c-3.5.69-12.5,11.57-15.26,14.84-24,28.45-55.06,85.81-54.57,123.51.44,33.54,42.69,16.86,56.05,1.98,16.01-17.83,13.58-29.05,17.32-50.68,3.62-20.9,8.83-41.45,12.77-62.28-4.22-6.65-6.16-17.89-10.23-23.84-1.63-2.37-2.9-4.15-6.09-3.52Z"/>
  <path d="M1208.01,298c-4.05,6.24-9.45,12.3-14.5,18.01-31.86,36.02-101.03,116.87-146.73,128.27-19.85,4.95-25.14-2.04-32.25-19.32-13.82-33.6-10.83-82.82-5.37-118.3,3-19.47,9.85-63.96,36.36-62.71,6.32.3,25.73,7.29,30.8,11.22,15.37,11.92,8.72,37.31,2.15,52.81-3.44,8.12-4.5,5.88-9.53,10.47-8.08,7.37-13.28,37.91-13.99,49.01-.32,5.02-.56,37.29.54,39.55,3.28,6.73,17.99-4.53,21.82-7.19,38.18-26.49,101.63-103.87,125.49-144.51,4.27-7.27,12.15-28.33,19.23-30.76,11.64-3.99,16.6,11.4,21.55,18.36,18.47,26.02,38.88,45.29,53.59,75.41,9.76,19.99,18.45,42.86,8.99,64.35-17.26,39.19-66.22,53.6-105.68,55.32-11.54.5-44.53-.52-24.5-18.5,10.55-9.47,24.14-11.12,35.52-24.48,23.81-27.95,15.1-68.92-3.5-97.01Z"/>
  <path d="M1907.99,307c-8.29,9.29-15.81,19.5-22.41,30.08-20.17,32.36-31.13,77.33-66.67,97.33-20.82,11.72-32.65,2.06-37.47-19.37-8.54-38,1.64-93.76,13.28-130.82,4.93-15.71,15.01-43.04,35.31-41.77,5.5.34,24.72,9.12,28.98,13.02,5.36,4.9,8.84,13.93,9.01,21.08.19,7.94-7.61,35.55-15.09,38.97-1.46.67-2.82-.26-3.96.1-9.44,3-14.28,30.24-12.73,38.63.53,2.87,1.36,5.84,4.75,4.25,2.84-1.33,21.68-37.26,25.58-43.43,8.19-12.96,18.44-28.01,30.94-37.06,11.09-8.04,21.54-10.84,29.65,2.31,20.65,33.48,34.72,70.78,58.61,103.39,11.67,15.93,27.1,25.53,38.63,41.37,23.49,32.23,3.73,43.95-28.92,45.9-27.84,1.67-37.03-6.52-47.67-31.31-7.94-18.5-16.16-40.13-22.84-59.16-8.19-23.33-16.77-48.67-16.99-73.52Z"/>
  <path d="M1558.35,418.65c-17.23-17.75-5.7-46.84,2.47-66.32,11.86-28.27,29.66-58.06,45.76-84.24,8.76-14.26,27.75-48.46,42.87-54.13,10.09-3.79,9.49-.19,17.11.99,9.77,1.51,25.8-4.59,19.23,13.35-3.14,8.58-15.68,23.59-20.96,33.04-13.47,24.1-27.21,56.44-35.1,82.9-5.86,19.66-16.41,51.68,18.28,33.28,7.5-3.98,10.53-8.57,16.51-13.49s12.83-5.16,12.49-13.48c-.78-19.48-17.91-49.48-12.54-66.57,2.65-8.44,10.47-13.78,18.87-8.83,12.38,7.3,23.9,46.7,27.16,60.84s9.11,37.41-10.25,41.77c-22.17,4.99-22.38,10.27-38.79,23.21-21.46,16.92-80.78,40.69-103.12,17.68Z"/>
  <path d="M1405.98,288l-56.59,42c-8.35.81-6.94-13.89-6.29-19.39,2.05-17.4,9.43-17.99,20.79-27.21,14.91-12.1,28.98-25.63,38.27-42.73,9.64-17.73,10.29-32.37,30.53-43.47,10.43-5.72,27.27-8.28,24.06,9.07-2.27,12.27-20.38,14.74-19.82,34.24,1.42,49.38,80.44,64.1,69.79,119.72-8.96,46.78-66.73,65.65-108.24,67.76-9.37.48-40.8,2.32-30.34-15.34,4.02-6.79,12.36-7.85,18.73-11.27,46.52-24.98,40.72-72.69,19.11-113.38Z"/>
  <path d="M1725.26,517.75c-4.07-4.27,2.39-13.88,6.25-16.74,4.56-3.38,14.35-4.99,19.94-5.05,1.62-.02,3.38,1.01,5.06,1.03,34.26.39,76.17,2.01,109.85,7.15,11,1.68,33.52,6,23.47,22.19-10.93,17.61-58.31,22.65-77.37,21.71-7.88-.39-21.47-1.75-28.16-5.84-8.25-5.04-3.1-13.36-13.74-17.26-10.53-3.86-39.56-1.17-45.3-7.19Z"/>
  <path d="M1131.65,106.35c12.29,11.69,12.07,32.87,2.18,45.97-5.92,7.84-35.22,26.14-44.76,28.23-2.6.57-5.3.72-7.93.31-4.15-10.18,1.3-21.23,2.75-31.48,1.86-13.14-.12-26.11,8.29-37.71,9.56-13.19,27.02-17.17,39.47-5.32Z"/>
  <path class="st0" d="M2222.5,279c12.09,1.22,22.97,7.04,25.05,19.95,1.5,9.29,1.63,23.45-7.56,28.56,2.46,3.98,6.25,4.2,8.82,9.18,7.23,14,4.47,38.21-11.46,45.16-13.33,5.82-33.58,3.11-47.81,3.11-19.85,0-39.71.09-59.54.04v-106h92.5ZM2150,322h69.5c.48,0,5.42-2.35,6.05-2.95,4.21-4.02,3.62-22.05-3.05-22.05h-72.5v25ZM2150,339v29h72.5c.53,0,5.8-1.98,6.5-2.5,4.35-3.21,4.07-20.8.32-23.57-.8-.59-4.71-1.69-5.91-1.84-4.13-.52-10.58-.92-14.87-1.13-19.24-.92-39.23.77-58.54.04Z"/>
  <path class="st0" d="M2408,279c-.91,7.5.81,15.3,1.04,22.46.6,18.46-2.11,41.46-.06,59.06.85,7.36,7.25,8.03,13.49,8.51,14.28,1.12,43.08,1.47,57.04-.03,4.25-.46,12.49-3.35,12.49-8.51v-81.5h20v83.5c0,5.83-5.3,14.51-10.06,17.94-11.58,8.33-37.03,5.38-51.48,5.52-14.18.14-28.28,2.02-42.68-1.24-18.85-4.26-20.06-20.85-19.82-37.26.03-2.36,1.06-4.56,1.08-6.92.2-20.51-.24-41.05-.04-61.54h19Z"/>
  <polygon class="st0" points="2294 279 2294 368 2372 368 2372 386 2274.99 385.01 2275 279 2294 279"/>
  <path class="st0" d="M845.34,315.33c-5.42,7.02-1.84,12.84,2.24,19.58,10.84,17.87,27.89,24.38,47.41,15.09-2.43,7.36-2.21,16.86-4.48,24.01-5.43,17.14-46.53,51.72-65.12,53.88-58.04,6.72-27.31-80.48-10.81-106.81,4.14-6.6,18.93-27.19,26.94-27.07,4.47.07,8.62,15.75,7,19-.6,1.2-2.56,1.5-3.19,2.31Z"/>
  <path class="st0" d="M578.74,322.15c3.2-.63,4.47,1.15,6.09,3.52,4.07,5.95,6.01,17.19,10.23,23.84-3.94,20.83-9.16,41.38-12.77,62.28-3.74,21.63-1.31,32.85-17.32,50.68-13.36,14.88-55.61,31.56-56.05-1.98-.5-37.69,30.57-95.06,54.57-123.51,2.76-3.27,11.76-14.14,15.26-14.84Z"/>
  <path d="M2150,339c19.31.73,39.3-.96,58.54-.04,4.29.21,10.74.6,14.87,1.13,1.2.15,5.11,1.25,5.91,1.84,3.75,2.77,4.03,20.36-.32,23.57-.7.52-5.97,2.5-6.5,2.5h-72.5v-29Z"/>
  <path d="M2150,322v-25h72.5c6.68,0,7.27,18.03,3.05,22.05-.63.6-5.58,2.95-6.05,2.95h-69.5Z"/>
</svg>