<?xml version="1.0" encoding="UTF-8"?>
<svg id="Layer_1" xmlns="http://www.w3.org/2000/svg" version="1.1" viewBox="0 0 446 113">
  <!-- Generator: Adobe Illustrator 30.0.0, SVG Export Plug-In . SVG Version: 2.1.1 Build 123)  -->
  <defs>
    <style>
      .st0 {
        fill: #fff;
      }
    </style>
  </defs>
  <path d="M446,1v111H0V1h446ZM38,71c7.32,5.98,17.74,5.37,19.02-5.48.66-5.57.78-25.67-.25-30.79-1.81-9.01-13.84-10.13-18.27-2.72l-.49-4.02h-10.01v61.01h10v-18ZM94,28v37.5c0,6.46,9.89,9.81,15.35,9.43,7.78-.54,14.54-6.82,13.65-14.93l-9.07.43c-1.09,9.37-12.22,7.6-9.99-1.77.28-1.17,15.43-5.49,18.96-14.26,4.43-10.99-2.29-20.01-14.14-16.14-3.68,1.2-5.4,5.59-6.3-.33l-8.46.07ZM141,71c7.32,5.98,17.74,5.37,19.02-5.48.66-5.57.78-25.67-.25-30.79-1.94-9.64-13.65-9.36-19.27-2.74l-.49-4h-9.01v61.01h10v-18ZM206,28v36.5c0,.62,2.3,5.18,2.98,6.02,4.59,5.75,16.61,5.43,21.95.9,1.64-1.39,6.3-9.7,4.12-10.96l-8.94-.36c-1.04,9.64-10.96,7.95-10.18-1.52,6.82-2.65,17.19-7.12,19.4-14.76,3.54-12.22-3.18-19.53-15.33-15.33-3.25,1.12-4.48,5.44-5.54-.57l-8.46.07ZM257,66v-28.5c0-7.9-10.18-12.88-16.86-9.36l-.14,7.86c1.77-.62,7,.7,7,2.5v27.5h-7s.44,7.06.44,7.06l6.57.93v12.01s9.42.01,9.42.01l.57-12.02h5.01s0-8,0-8h-5.01ZM287,46l10.76-2.46c-3.48-29.24-45.23-14.7-29.6,9.79,4.03,6.31,22.92,17.74,16.93,26.02-4.9,3.2-8.87.28-9.19-5.25l-9.87.92c-.84,20.56,31.25,20.3,30.86-.42-.22-12.08-10.26-15.88-16.88-23.11-12.39-13.55,6.36-22.65,6.99-5.49ZM340,49h-18.5c-3.03,3.8-.98,14.53,1.11,18.89,4.95,10.34,23.57,8.97,26.71-3.08,1.4-5.39,1.38-24.07-.53-29.11-5.63-14.87-31.25-9.08-27.85,7.82l8.48.53c2.95-15.65,13.45-8.09,10.58,4.94ZM85,28h-10v33.5c0,3.99-9.18,4.43-11.99,2.5v11c4.36-.4,8.72-1.38,11.5-4.99l2.11,3.88,8.38.12V28ZM178,28l-8.36.14-1.5,1.5c1.53,14.42-8.17,59.62,19.37,40.37l.49,4h9.01V28h-10v35.5c0,2.3-9,4.92-9,1V28ZM368,28l-8.36.14-1.5,1.5c1.82,14.27-8.72,57.92,18.86,41.36v18h10V28h-10v35.5c0,2.3-9,4.92-9,1V28ZM413,28h-11v52h-10.01s0,9,0,9h31v-9.01s-10,0-10,0V28Z"/>
  <rect class="st0" width="446" height="1"/>
  <rect class="st0" y="112" width="446" height="1"/>
  <path class="st0" d="M141,71v18h-10V28h9.01s.49,3.99.49,3.99c5.62-6.63,17.34-6.9,19.27,2.74,1.03,5.12.92,25.22.25,30.79-1.29,10.84-11.7,11.46-19.02,5.48ZM148.76,36.25c-1.96-2.04-5.98-.29-7.79,1.43v26.66c.34,1.49,6.75,2.25,7.9,1.53,1.62-1.02,1.97-27.45-.11-29.61Z"/>
  <path class="st0" d="M38,71v18h-10V28h10.01s.49,4.01.49,4.01c4.42-7.4,16.46-6.29,18.27,2.72,1.03,5.12.92,25.22.25,30.79-1.29,10.84-11.7,11.46-19.02,5.48ZM38,65c12.57,6.82,10.59-12.62,10.04-20.54-.56-8.03-1.8-10.83-10.04-7.46v28Z"/>
  <path class="st0" d="M287,46c-.64-17.17-19.39-8.06-6.99,5.49,6.62,7.23,16.66,11.03,16.88,23.11.38,20.72-31.7,20.99-30.86.42l9.87-.92c.32,5.53,4.29,8.45,9.19,5.25,6-8.27-12.9-19.71-16.93-26.02-15.63-24.5,26.13-39.04,29.6-9.79l-10.76,2.46Z"/>
  <path class="st0" d="M368,28v36.5c0,3.92,9,1.3,9-1V28h10v61h-10v-18c-27.58,16.56-17.04-27.09-18.86-41.36l1.5-1.5,8.36-.14Z"/>
  <path class="st0" d="M206,28l8.46-.07c1.06,6.01,2.29,1.69,5.54.57,12.15-4.2,18.86,3.11,15.33,15.33-2.21,7.65-12.58,12.12-19.4,14.76-.77,9.47,9.14,11.16,10.18,1.52l8.94.36c2.17,1.25-2.48,9.56-4.12,10.96-5.34,4.53-17.36,4.85-21.95-.9-.68-.85-2.98-5.41-2.98-6.02V28ZM216.01,51c4.41-3.27,10.36-4.89,10.08-11.5-.16-3.87-2.94-4.3-6.38-3.29-5.54,1.64-3.35,10.39-3.7,14.79Z"/>
  <path class="st0" d="M94,28l8.46-.07c.91,5.92,2.62,1.53,6.3.33,11.86-3.87,18.57,5.15,14.14,16.14-3.53,8.77-18.68,13.08-18.96,14.26-2.24,9.37,8.9,11.15,9.99,1.77l9.07-.43c.89,8.11-5.87,14.39-13.65,14.93-5.46.38-15.35-2.98-15.35-9.43V28ZM111.68,45.68c1.5-1.76,3.32-6.76,1.89-8.75-10.74-4.2-10.03,6.45-9.56,14.07.28.38,7.37-4.96,7.67-5.32Z"/>
  <path class="st0" d="M340,49c2.87-13.03-7.62-20.6-10.58-4.94l-8.48-.53c-3.4-16.9,22.21-22.69,27.85-7.82,1.91,5.03,1.93,23.71.53,29.11-3.13,12.05-21.76,13.41-26.71,3.08-2.09-4.36-4.13-15.09-1.11-18.89h18.5ZM340,57h-10.01s1.96,8.54,1.96,8.54c7.21,2.24,8.89-2.03,8.05-8.54Z"/>
  <path class="st0" d="M178,28v36.5c0,3.92,9,1.3,9-1V28h10v46h-9.01s-.49-3.99-.49-3.99c-27.54,19.26-17.84-25.95-19.37-40.37l1.5-1.5,8.36-.14Z"/>
  <polygon class="st0" points="413 28 413 80 423.01 79.99 423 89 392 89 391.99 79.99 402 80 402 28 413 28"/>
  <path class="st0" d="M257,66h5.01s0,8.01,0,8.01h-5.01s-.57,12.01-.57,12.01h-9.43s.01-12.02.01-12.02l-6.57-.93-.44-7.07h7s0-27.5,0-27.5c0-1.8-5.23-3.12-7-2.5l.14-7.86c6.68-3.52,16.86,1.46,16.86,9.36v28.5Z"/>
  <path class="st0" d="M85,28v46l-8.38-.12-2.11-3.88c-2.77,3.61-7.14,4.59-11.5,4.99v-11c2.82,1.93,11.99,1.49,11.99-2.5V28h10Z"/>
  <path d="M148.76,36.25c2.08,2.16,1.73,28.6.11,29.61-1.15.72-7.56-.04-7.9-1.53v-26.66c1.81-1.72,5.84-3.47,7.8-1.43Z"/>
  <path d="M38,65v-28c8.25-3.37,9.48-.58,10.04,7.46.55,7.92,2.53,27.37-10.04,20.54Z"/>
  <path d="M216.01,51c.35-4.4-1.84-13.15,3.7-14.79,3.44-1.02,6.22-.59,6.38,3.29.27,6.61-5.67,8.23-10.08,11.5Z"/>
  <path d="M111.68,45.68c-.3.36-7.39,5.69-7.67,5.32-.47-7.61-1.19-18.26,9.56-14.07,1.43,1.99-.39,6.99-1.89,8.75Z"/>
  <path d="M340,57c.84,6.5-.84,10.77-8.05,8.54l-1.96-8.53h10.01Z"/>
</svg>