<svg xmlns="http://www.w3.org/2000/svg" viewBox="0 0 512 512" role="img" aria-labelledby="title desc">
  <title id="title">Extranet product icon</title>
  <desc id="desc">A hotel control dashboard with a building marker, room grid, and active control toggle.</desc>
  <rect x="62" y="106" width="388" height="306" rx="38" fill="#C7A8F0"/>
  <rect x="62" y="106" width="388" height="74" rx="38" fill="#8039D7"/>
  <path d="M62 144c0-21 17-38 38-38h312c21 0 38 17 38 38v36H62v-36Z" fill="#8039D7"/>
  <circle cx="100" cy="143" r="11" fill="#F1E9FB"/>
  <circle cx="138" cy="143" r="11" fill="#F1E9FB"/>
  <circle cx="176" cy="143" r="11" fill="#F1E9FB"/>
  <path d="M348 162v-30h12v-12h12v-12h12v12h12v12h12v30Z" fill="#F1E9FB"/>
  <rect x="362" y="146" width="8" height="16" fill="#8039D7"/>
  <rect x="92" y="216" width="142" height="92" rx="18" fill="#FFFFFF"/>
  <rect x="110" y="234" width="62" height="10" rx="5" fill="#8039D7"/>
  <rect x="110" y="252" width="106" height="8" rx="4" fill="#C7A8F0"/>
  <rect x="110" y="268" width="86" height="8" rx="4" fill="#C7A8F0"/>
  <rect x="110" y="284" width="76" height="8" rx="4" fill="#C7A8F0"/>
  <rect x="252" y="216" width="166" height="22" rx="11" fill="#FFFFFF"/>
  <rect x="252" y="246" width="166" height="22" rx="11" fill="#FFFFFF" opacity="0.6"/>
  <rect x="252" y="276" width="166" height="22" rx="11" fill="#FFFFFF" opacity="0.6"/>
  <rect x="92" y="334" width="328" height="48" rx="24" fill="#FFFFFF"/>
  <circle cx="368" cy="358" r="18" fill="#8039D7"/>
  <circle cx="368" cy="358" r="7" fill="#F1E9FB"/>
  <rect x="120" y="350" width="84" height="16" rx="8" fill="#8039D7"/>
  <rect x="222" y="350" width="68" height="16" rx="8" fill="#C7A8F0"/>
</svg>
